<?xml version="1.0" standalone="no"?>
<!DOCTYPE svg PUBLIC "-//W3C//DTD SVG 20010904//EN"
 "http://www.w3.org/TR/2001/REC-SVG-20010904/DTD/svg10.dtd">
<svg version="1.0" xmlns="http://www.w3.org/2000/svg"
 width="512.000000pt" height="512.000000pt" viewBox="0 0 512.000000 512.000000"
 preserveAspectRatio="xMidYMid meet">

<g transform="translate(0.000000,512.000000) scale(0.100000,-0.100000)"
fill="#000000" stroke="none">
<path d="M1319 4385 c-118 -20 -270 -71 -383 -129 -417 -212 -694 -626 -724
-1081 -37 -558 183 -1103 638 -1579 296 -310 497 -470 1165 -924 181 -123 378
-262 437 -309 l108 -84 108 84 c59 47 256 186 437 309 668 454 869 614 1165
924 455 476 675 1021 638 1579 -20 303 -151 594 -370 821 -350 363 -876 495
-1358 342 -191 -61 -366 -167 -521 -316 l-99 -94 -99 94 c-203 195 -440 316
-710 362 -113 19 -322 20 -432 1z m431 -210 c299 -63 522 -210 721 -476 45
-60 85 -109 89 -109 4 0 44 49 89 109 249 333 561 497 941 494 316 -2 587
-117 802 -341 226 -235 328 -512 314 -852 -18 -450 -206 -861 -573 -1250 -281
-299 -489 -465 -1127 -898 -181 -122 -355 -243 -387 -268 l-59 -45 -59 45
c-32 25 -206 146 -387 268 -638 433 -846 599 -1127 898 -367 389 -555 800
-573 1250 -14 340 88 617 314 852 265 275 658 400 1022 323z"/>
</g>
</svg>
